<?xml version="1.0" encoding="UTF-8"?>
<svg id="Layer_1" xmlns="http://www.w3.org/2000/svg" viewBox="0 0 182.57 77.09">
  <g>
    <path d="M50.04,43.06l-.64,1.26c-1.75,3.44-5.05,5.82-8.85,6.37-3.12.46-6.24-.33-8.78-2.23-2.54-1.89-4.19-4.65-4.64-7.78-.46-3.12.33-6.24,2.23-8.78,1.89-2.54,4.65-4.19,7.78-4.64,4.79-.69,9.48,1.56,11.93,5.75l.71,1.22,5.21-3.04-.72-1.23c-3.7-6.33-10.77-9.74-18.01-8.68-4.72.69-8.88,3.18-11.74,7.01s-4.05,8.54-3.36,13.25c1.3,8.88,8.95,15.29,17.67,15.29.86,0,1.72-.06,2.59-.19,5.73-.84,10.72-4.43,13.35-9.62l.64-1.27-5.38-2.72Z"/>
    <circle cx="51.57" cy="7.14" r="7.09"/>
    <path d="M65.44,12.73l-.48-.51-4.46,4.12.5.52c6.48,6.8,9.63,16.02,8.66,25.3-1.32,12.55-9.96,23.15-22.01,27.02l-.5.16,1.67,5.85.68-.22c14.35-4.6,24.63-17.23,26.2-32.18,1.16-11.02-2.58-21.99-10.26-30.08Z"/>
    <path d="M37.95,7.09h.71V1.01h-.71C17.02,1.01,0,18.03,0,38.96s17.02,37.95,37.95,37.95h.71v-6.08h-.71c-16.12,0-29.87-12.37-31.66-28.31h8.75v-7.09H6.28c1.77-15.96,15.53-28.34,31.67-28.34Z"/>
  </g>
  <g>
    <path d="M86.6,26.13v-11.3h5.84v.98h-4.75v3.84h4.59v.96h-4.59v4.55h4.99v.98h-6.08Z"/>
    <path d="M100.89,26.13l-2.8-4.96-2.85,4.96h-1.18l3.46-5.83-3.17-5.47h1.26l2.58,4.63,2.64-4.63h1.15l-3.22,5.44,3.43,5.86h-1.3Z"/>
    <path d="M106.25,21.75h-1.18v4.39h-1.09v-11.3h2.37c2.18,0,4.4.54,4.4,3.33s-2.29,3.59-4.5,3.59ZM106.39,15.79h-1.33v4.99h1.2c1.92,0,3.39-.59,3.39-2.58,0-2.1-1.73-2.42-3.27-2.42Z"/>
    <path d="M119.47,26.13l-3.18-4.56c-.32-.48-.54-.48-.86-.48h-1.39v5.04h-1.07v-11.3h2.43c2.11,0,4.32.48,4.32,3.03,0,1.65-1.12,2.67-2.74,2.95.75,1.14,2.75,3.92,3.83,5.33h-1.33ZM115.38,15.79h-1.36v4.37h1.38c1.23,0,3.2-.26,3.2-2.26s-1.9-2.11-3.22-2.11Z"/>
    <path d="M122.61,26.13v-11.3h5.84v.98h-4.75v3.84h4.59v.96h-4.59v4.55h4.99v.98h-6.08Z"/>
    <path d="M133.34,26.41c-1.1,0-2.14-.37-2.9-1.1l.48-.85c.64.62,1.52,1.01,2.5,1.01,1.17,0,2.51-.64,2.51-2.18,0-1.28-.82-1.81-1.87-2.27l-1.09-.48c-1.3-.56-2.3-1.34-2.3-2.93,0-1.81,1.49-3.07,3.41-3.07,1.06,0,2.02.35,2.72,1.04l-.5.85c-.59-.64-1.36-.96-2.24-.96-1.55,0-2.32.98-2.32,2.03,0,1.12.77,1.65,1.7,2.05l1.09.48c1.42.61,2.48,1.38,2.48,3.14,0,2.18-1.83,3.25-3.67,3.25Z"/>
    <path d="M141.42,26.41c-1.1,0-2.14-.37-2.9-1.1l.48-.85c.64.62,1.52,1.01,2.5,1.01,1.17,0,2.51-.64,2.51-2.18,0-1.28-.82-1.81-1.87-2.27l-1.09-.48c-1.3-.56-2.3-1.34-2.3-2.93,0-1.81,1.49-3.07,3.41-3.07,1.06,0,2.02.35,2.72,1.04l-.5.85c-.59-.64-1.36-.96-2.24-.96-1.55,0-2.32.98-2.32,2.03,0,1.12.77,1.65,1.7,2.05l1.09.48c1.42.61,2.48,1.38,2.48,3.14,0,2.18-1.83,3.25-3.67,3.25Z"/>
    <path d="M147.48,26.13v-11.3h1.07v11.3h-1.07Z"/>
    <path d="M155.42,26.18h-1.14l-4-11.35h1.15l2.48,7.16c.3.96.74,2.32.96,3.06h.03c.18-.64.59-1.94.98-3.02l2.51-7.19h1.09l-4.07,11.35Z"/>
    <path d="M161.13,26.13v-11.3h5.84v.98h-4.75v3.84h4.59v.96h-4.59v4.55h4.99v.98h-6.08Z"/>
    <path d="M91.06,44.41c-3.25,0-5.2-2.51-5.2-5.79,0-2.98,1.63-6.08,5.17-6.08,1.28,0,2.43.38,3.23,1.23l-.51.86c-.61-.62-1.46-1.09-2.69-1.09-2.71,0-4.08,2.37-4.08,5.04s1.58,4.82,4.18,4.82c1.07,0,2.03-.45,2.66-1.1l.5.85c-.82.77-2.03,1.26-3.25,1.26Z"/>
    <path d="M100.5,44.44c-3.19,0-4.95-2.53-4.95-5.99,0-4.24,2.56-5.95,4.96-5.95,3.19,0,4.96,2.53,4.96,5.99,0,4.24-2.56,5.95-4.98,5.95ZM100.52,33.49c-2.77,0-3.86,2.46-3.86,4.96s1.09,4.99,3.86,4.99,3.84-2.46,3.84-4.96-1.09-4.99-3.84-4.99Z"/>
    <path d="M117.4,44.13l-.34-7.67c-.02-.56-.03-1.54-.03-1.89h-.03c-.08.29-.3,1.04-.66,1.94l-2.98,7.62h-.85l-3.01-7.76c-.27-.67-.54-1.52-.59-1.76h-.03c0,.29,0,1.23-.02,1.79l-.21,7.73h-.96l.32-11.3h1.22l3.1,8.07c.34.88.58,1.62.64,1.91h.03c.1-.35.35-1.09.69-1.97l3.02-8h1.22l.51,11.3h-1.06Z"/>
    <path d="M123.69,39.75h-1.18v4.39h-1.09v-11.3h2.37c2.18,0,4.4.54,4.4,3.33s-2.29,3.59-4.5,3.59ZM123.83,33.79h-1.33v4.99h1.2c1.92,0,3.39-.59,3.39-2.58,0-2.1-1.73-2.42-3.27-2.42Z"/>
    <path d="M134.6,44.41c-3.15,0-4.37-1.87-4.37-4.8v-6.77h1.07v6.77c0,2.24.82,3.83,3.3,3.83,2.27,0,3.31-1.33,3.31-3.83v-6.77h1.06v6.77c0,2.93-1.26,4.8-4.37,4.8Z"/>
    <path d="M145.32,33.81v10.32h-1.07v-10.32h-3.79v-.98h8.72v.98h-3.86Z"/>
    <path d="M150.82,44.13v-11.3h5.84v.98h-4.75v3.84h4.59v.96h-4.59v4.55h4.99v.98h-6.08Z"/>
    <path d="M165.98,44.13l-3.18-4.56c-.32-.48-.54-.48-.86-.48h-1.39v5.04h-1.07v-11.3h2.43c2.11,0,4.32.48,4.32,3.03,0,1.65-1.12,2.67-2.74,2.95.75,1.14,2.75,3.92,3.83,5.33h-1.33ZM161.9,33.79h-1.36v4.37h1.38c1.23,0,3.2-.26,3.2-2.26s-1.9-2.11-3.22-2.11Z"/>
    <path d="M86.68,62.13v-11.3h1.07v11.3h-1.07Z"/>
    <path d="M98.41,62.13l-5.36-7.68c-.77-1.1-1.04-1.63-1.17-1.91h-.05v9.59h-1.01v-11.3h1.07l5.07,7.38c.75,1.1,1.25,1.89,1.42,2.26h.05v-9.64h1.01v11.3h-1.04Z"/>
    <path d="M105.96,51.81v10.32h-1.07v-10.32h-3.79v-.98h8.72v.98h-3.86Z"/>
    <path d="M111.46,62.13v-11.3h5.84v.98h-4.75v3.84h4.59v.96h-4.59v4.55h4.99v.98h-6.08Z"/>
    <path d="M126.62,62.13l-3.18-4.56c-.32-.48-.54-.48-.86-.48h-1.39v5.04h-1.07v-11.3h2.43c2.11,0,4.32.48,4.32,3.03,0,1.65-1.12,2.67-2.74,2.95.75,1.14,2.75,3.92,3.83,5.33h-1.33ZM122.54,51.79h-1.36v4.37h1.38c1.23,0,3.2-.26,3.2-2.26s-1.9-2.11-3.22-2.11Z"/>
    <path d="M136.55,62.13l-1.2-3.28h-4.69l-1.17,3.28h-1.07l4.02-11.35h1.17l4.1,11.35h-1.15ZM133.61,53.87c-.24-.7-.51-1.57-.59-1.94h-.05c-.1.35-.34,1.2-.59,1.95l-1.41,4.02h4.08l-1.44-4.03Z"/>
    <path d="M143.8,62.41c-3.25,0-5.2-2.51-5.2-5.79,0-2.98,1.63-6.08,5.17-6.08,1.28,0,2.43.38,3.23,1.23l-.51.86c-.61-.62-1.46-1.09-2.69-1.09-2.71,0-4.08,2.37-4.08,5.04s1.58,4.82,4.18,4.82c1.07,0,2.03-.45,2.66-1.1l.5.85c-.82.77-2.03,1.26-3.25,1.26Z"/>
    <path d="M152.81,51.81v10.32h-1.07v-10.32h-3.79v-.98h8.72v.98h-3.86Z"/>
    <path d="M158.39,62.13v-11.3h1.07v11.3h-1.07Z"/>
    <path d="M166.73,62.44c-3.19,0-4.95-2.53-4.95-5.99,0-4.24,2.56-5.95,4.96-5.95,3.19,0,4.96,2.53,4.96,5.99,0,4.24-2.56,5.95-4.98,5.95ZM166.74,51.49c-2.77,0-3.86,2.46-3.86,4.96s1.09,4.99,3.86,4.99,3.84-2.46,3.84-4.96-1.09-4.99-3.84-4.99Z"/>
    <path d="M181.53,62.13l-5.36-7.68c-.77-1.1-1.04-1.63-1.17-1.91h-.05v9.59h-1.01v-11.3h1.07l5.07,7.38c.75,1.1,1.25,1.89,1.42,2.26h.05v-9.64h1.01v11.3h-1.04Z"/>
  </g>
</svg>